<?xml version="1.0" encoding="UTF-8" standalone="no"?>
<!-- Uploaded to: SVG Repo, www.svgrepo.com, Generator: SVG Repo Mixer Tools -->

<svg
   version="1.1"
   id="designs"
   width="179.98575"
   height="217.9855"
   viewBox="0 0 7.1994299 8.7194202"
   xml:space="preserve"
   sodipodi:docname="connected.svg"
   inkscape:version="1.1.2 (0a00cf5339, 2022-02-04)"
   xmlns:inkscape="http://www.inkscape.org/namespaces/inkscape"
   xmlns:sodipodi="http://sodipodi.sourceforge.net/DTD/sodipodi-0.dtd"
   xmlns="http://www.w3.org/2000/svg"
   xmlns:svg="http://www.w3.org/2000/svg"><defs
   id="defs962" /><sodipodi:namedview
   id="namedview960"
   pagecolor="#ffffff"
   bordercolor="#666666"
   borderopacity="1.0"
   inkscape:pageshadow="2"
   inkscape:pageopacity="0.0"
   inkscape:pagecheckerboard="0"
   showgrid="false"
   fit-margin-top="0"
   fit-margin-left="0"
   fit-margin-right="0"
   fit-margin-bottom="0"
   inkscape:zoom="0.9975"
   inkscape:cx="102.75689"
   inkscape:cy="329.82456"
   inkscape:window-width="1920"
   inkscape:window-height="1008"
   inkscape:window-x="0"
   inkscape:window-y="0"
   inkscape:window-maximized="1"
   inkscape:current-layer="designs" />
<style
   type="text/css"
   id="style955">
	.sketchy_een{fill:#111918;}
</style>

<path
   style="fill:#457b9d;stroke-width:0.04;fill-opacity:1"
   d="m 0.52891707,8.6289108 c -0.06809,-0.072478 -0.08741,-0.1501736 -0.09697,-0.39 l -0.011947,-0.2994912 -0.149398,-0.012379 C -0.00107993,7.90453 6.71941e-8,7.9107352 6.71941e-8,6.37275 V 5.0038808 L 0.09647007,4.89165 l 0.09647,-0.1122304 0.723533,-0.013239 0.72353203,-0.01324 3.28e-4,-0.3267604 c 0.0013,-1.2966656 0.375859,-2.1995636 0.998217,-2.4062776 0.294841,-0.09793 0.760187,-0.068707 0.981455,0.061636 0.393053,0.2315362 0.626721,0.5001294 0.757454,0.8706658 0.06513,0.1845888 0.118356,0.7571568 0.183131,1.9698628 0.04674,0.8751128 0.07463,1.021338 0.221056,1.158894 0.08061,0.075731 0.145395,0.095601 0.311689,0.095601 0.265659,0 0.456526,-0.1068008 0.575813,-0.3222008 0.08372,-0.15118 0.0916,-0.2349716 0.129494,-1.3779552 0.02219,-0.6693428 0.04058,-1.3384868 0.04086,-1.4869868 l 5.05e-4,-0.27 h -0.4538 c -0.382893,0 -0.463084,-0.010938 -0.513208,-0.07 -0.05008,-0.059014 -0.05577,-0.1998762 -0.0362,-0.8975081 l 0.02321,-0.82750816 0.11,-0.1146806 c 0.09738,-0.1015265 0.11,-0.1450661 0.11,-0.3795887 0,-0.2385415 0.01049,-0.2731594 0.105394,-0.3478112 0.09738,-0.076599 0.157455,-0.0828570023 0.79,-0.08229100234 0.376534,3.36000004e-4 0.704411,0.01383700234 0.728618,0.03000000234 0.08786,0.058665 0.135988,0.2086938 0.135988,0.4239007 0,0.2077738 0.06362,0.3454868 0.159595,0.3454868 0.01863,0 0.07135,0.060625 0.117143,0.1347214 0.07467,0.12082066 0.0832,0.19614256 0.08266,0.72999996 -5.92e-4,0.5855527 -0.04077,0.832647 -0.153744,0.9456246 -0.02628,0.026277 -0.204798,0.057198 -0.396715,0.068715 -0.308799,0.01853 -0.348218,0.029481 -0.342674,0.095196 0.0034,0.040842 -0.01065,0.3198416 -0.03133,0.62 -0.02068,0.3001584 -0.05207,0.9867428 -0.06975,1.5257428 -0.03549,1.0814364 -0.05055,1.1528868 -0.301628,1.4308004 -0.472215,0.5226715 -1.374066,0.4566679 -1.669368,-0.1221737 -0.09102,-0.178412 -0.148985,-0.7915872 -0.15396,-1.628626 -0.00336,-0.564938 -0.091149,-1.3329504 -0.175428,-1.5346568 -0.097966,-0.2344676 -0.221598,-0.385068 -0.418752,-0.5100992 -0.146757,-0.093071 -0.226638,-0.115244 -0.415174,-0.115244 -0.305878,0 -0.466613,0.071817 -0.603802,0.2697808 -0.249366,0.3598348 -0.428436,1.2310908 -0.368348,1.7921804 l 0.02763,0.2580388 0.546816,2.4e-4 c 0.584924,2.4e-4 0.82753,0.042187 0.876345,0.1515268 0.01676,0.037521 0.03047,0.7162332 0.03047,1.5082332 v 1.44 l -0.129134,0.06 c -0.123216,0.05725 -0.129174,0.070456 -0.13,0.288118 -0.001,0.2720936 -0.05518,0.4073372 -0.187159,0.4674712 -0.06458,0.029424 -0.506186,0.044411 -1.308617,0.044411 -1.20630103,0 -1.21148503,-3.6e-4 -1.29617303,-0.090509 z M 2.7321641,8.1792268 c 0.04894,-0.020366 0.06825,-0.063776 0.06,-0.1349172 l -0.01216,-0.10489 h -0.9 -0.90000003 l -0.01316,0.092909 c -0.03125,0.2205376 -0.03583,0.2194904 0.86395303,0.1973388 0.456066,-0.011228 0.861684,-0.033926 0.901374,-0.050441 z m 0.387214,-1.5398072 c -0.01066,-0.429 -0.01701,-0.9177352 -0.01412,-1.0860784 l 0.0053,-0.3060788 -0.571099,-0.028549 c -0.677186,-0.033852 -1.96032103,-0.0117 -2.00675803,0.034646 -0.01797,0.017928 -0.03799,0.5173704 -0.0445,1.1098708 l -0.01184,1.0772732 1.33121803,-0.010542 1.331218,-0.010542 z M 6.6855621,2.215982 c 0.03883,-0.023999 0.04769,-0.8554795 0.01016,-0.9532909 -0.02077,-0.054122 -0.11876,-0.063271 -0.677639,-0.063271 -0.438604,0 -0.662449,0.014707 -0.681013,0.044744 -0.04234,0.068513 -0.07128,0.7269793 -0.03941,0.8968551 l 0.02825,0.1505644 0.662609,-0.027158 c 0.364434,-0.014937 0.678105,-0.036736 0.697046,-0.048442 z m -0.333147,-1.60656236 -0.01242,-0.15 h -0.38 -0.38 l -0.01242,0.15 -0.01241,0.15 h 0.404829 0.404829 z"
   id="path2034" /></svg>
