<?xml version="1.0" encoding="UTF-8" standalone="no"?>
<!-- Uploaded to: SVG Repo, www.svgrepo.com, Generator: SVG Repo Mixer Tools -->

<svg
   version="1.1"
   id="designs"
   width="217.93398"
   height="185.21776"
   viewBox="0 0 8.7173589 7.4087103"
   xml:space="preserve"
   sodipodi:docname="dino.svg"
   inkscape:version="1.1.2 (0a00cf5339, 2022-02-04)"
   xmlns:inkscape="http://www.inkscape.org/namespaces/inkscape"
   xmlns:sodipodi="http://sodipodi.sourceforge.net/DTD/sodipodi-0.dtd"
   xmlns="http://www.w3.org/2000/svg"
   xmlns:svg="http://www.w3.org/2000/svg"><defs
   id="defs962" /><sodipodi:namedview
   id="namedview960"
   pagecolor="#ffffff"
   bordercolor="#666666"
   borderopacity="1.0"
   inkscape:pageshadow="2"
   inkscape:pageopacity="0.0"
   inkscape:pagecheckerboard="0"
   showgrid="false"
   fit-margin-top="0"
   fit-margin-left="0"
   fit-margin-right="0"
   fit-margin-bottom="0"
   inkscape:zoom="0.9975"
   inkscape:cx="-1988.4712"
   inkscape:cy="-983.45865"
   inkscape:window-width="1920"
   inkscape:window-height="1008"
   inkscape:window-x="0"
   inkscape:window-y="0"
   inkscape:window-maximized="1"
   inkscape:current-layer="designs" />
<style
   type="text/css"
   id="style955">
	.sketchy_een{fill:#111918;}
</style>

<path
   style="fill:#457b9d;stroke-width:0.04;fill-opacity:1"
   d="m 0.29596006,7.3983955 c -0.04476,-0.01673 -0.101512,-0.05493 -0.126106,-0.08489 -0.05705,-0.0695 -0.131465,-1.540671 -0.16082,-3.1794872 -0.01874,-1.0459085 -0.01097,-1.3369661 0.04854,-1.8200002 0.122089,-0.9909749 0.309766,-1.4533398 0.753833,-1.8571513 C 1.1996411,0.1038257 1.4923181,0.0016135 2.1195851,8.8046147e-6 2.7612371,-0.0016312 3.2311551,0.2258278 3.5434071,0.6891999 c 0.415702,0.616886 0.0157,1.5050491 -0.789306,1.7525772 -0.230966,0.071019 -0.296673,0.075606 -0.535793,0.037407 -0.149899,-0.023946 -0.306308,-0.061609 -0.347576,-0.083696 -0.100232,-0.053643 -0.147421,-0.018056 -0.236667,0.1784777 -0.08624,0.1899223 -0.100741,0.5742175 -0.03196,0.8473523 0.02461,0.097742 0.05216,0.1777128 0.06123,0.1777128 0.0091,0 0.139952,-0.069968 0.290864,-0.1554848 0.414839,-0.235074 0.668412,-0.3157384 1.087002,-0.3457868 0.723282,-0.051921 1.288224,0.108968 1.862757,0.5304928 0.254584,0.1867837 0.579662,0.5786237 0.930968,1.1221614 0.574577,0.888984 0.877336,1.074461 1.476277,0.904405 0.197483,-0.05607 0.267306,-0.106784 0.550718,-0.4 0.292369,-0.302481 0.339293,-0.335788 0.473077,-0.335788 0.110815,0 0.178196,0.02968 0.265438,0.116924 0.107767,0.107766 0.116923,0.139675 0.116923,0.407444 0,0.827853 -0.37449,1.447365 -1.036146,1.714079 -0.345387,0.139226 -0.6668,0.201122 -1.043853,0.201019 -0.588283,-1.59e-4 -0.888198,-0.1004 -1.575161,-0.526468 -0.310747,-0.192731 -0.38204,-0.202109 -0.384227,-0.05054 -3.2e-4,0.02335 -0.03731,0.08185 -0.08217,0.13 -0.06624,0.0711 -0.126236,0.08754 -0.319463,0.08754 -0.233016,0 -0.239079,0.0028 -0.295055,0.136781 -0.07792,0.186486 -0.16673,0.223508 -0.531294,0.221477 -0.451434,-0.0025 -0.652674,-0.05026 -0.765695,-0.181651 -0.09216,-0.107143 -0.09491,-0.129316 -0.08117,-0.653756 l 0.01423,-0.542851 -0.109999,-0.01266 c -0.107711,-0.01239 -0.110017,-0.0082 -0.110793,0.2 -0.0014,0.385792 -0.07461,0.762603 -0.167226,0.861193 -0.07285,0.07754 -0.126506,0.09146 -0.352533,0.09146 -0.245564,0 -0.270204,0.0079 -0.31217,0.1 -0.02506,0.055 -0.05945,0.101333 -0.07642,0.102963 -0.01697,0.0016 -0.228858,0.0086 -0.470858,0.01554 -0.24200004,0.0069 -0.48500004,0.03029 -0.54000004,0.05193 -0.055,0.02164 -0.136624,0.02566 -0.181388,0.0089 z M 1.1573481,6.2522125 c 0.011,-0.333748 0.029,-0.612809 0.04,-0.620135 0.011,-0.0073 0.08023,-0.05557 0.153834,-0.107217 0.131145,-0.09201 0.146414,-0.09336 0.76,-0.06698 0.344392,0.0148 0.68498,0.04512 0.756862,0.06736 0.215666,0.06674 0.265186,0.213742 0.267398,0.793783 l 0.0019,0.5 0.183966,0.01194 0.183966,0.01195 0.02603,-0.307981 c 0.01432,-0.169389 0.02603,-0.420361 0.02603,-0.557715 0,-0.22038 0.01364,-0.264337 0.116048,-0.373964 0.06383,-0.06833 0.147202,-0.124231 0.185279,-0.124231 0.08578,0 0.275418,0.11343 0.638672,0.382008 0.451603,0.333899 0.97916,0.676903 1.28,0.832223 0.227216,0.117309 0.341007,0.149429 0.603614,0.170384 0.934476,0.07457 1.652132,-0.334931 1.795666,-1.024615 l 0.02914,-0.14 -0.154208,0.148026 c -0.201472,0.193411 -0.478657,0.312493 -0.83011,0.356635 -0.367992,0.046219 -0.659503,-0.00819 -0.936842,-0.174845 C 6.0668441,5.8979875 5.7583221,5.5227465 5.2032271,4.7136165 4.8977171,4.2682943 4.5429831,3.9445123 4.1687971,3.7694463 3.8695581,3.6294446 3.8369621,3.6231358 3.3373481,3.6085242 l -0.52,-0.015207 -0.32,0.1662097 c -0.175999,0.091416 -0.434813,0.2274628 -0.57514,0.3023272 -0.186856,0.099688 -0.283204,0.1292 -0.36,0.1102716 -0.26941,-0.066403 -0.411142,-0.2863428 -0.503966,-0.7820537 -0.11237504,-0.60012 -0.0026,-1.0485363 0.354168,-1.4472158 0.194931,-0.2178088 0.304704,-0.2342216 0.561196,-0.083908 0.103416,0.060606 0.263604,0.1094916 0.407122,0.1242444 0.221596,0.022779 0.249175,0.015799 0.434341,-0.1099214 0.238136,-0.1616861 0.382279,-0.4107051 0.382279,-0.6604205 0,-0.1443494 -0.02527,-0.2016243 -0.15,-0.3399854 -0.236627,-0.2624861 -0.475203,-0.353057 -0.93,-0.353057 -0.320216,0 -0.413408,0.015553 -0.592352,0.098859 -0.93576504,0.4356378 -1.09942004,1.2353204 -0.96602104,4.7203592 0.02358,0.616 0.05226,1.215323 0.06373,1.331828 l 0.02086,0.211828 0.246893,-0.01183 0.24689304,-0.01183 z m 0.8662,-4.9663351 c -0.103362,-0.1142142 -0.08638,-0.3193687 0.03085,-0.3727846 0.29572,-0.1347391 0.51032,0.2521381 0.224662,0.4050175 -0.110923,0.059364 -0.18057,0.050579 -0.255513,-0.032233 z m -0.169471,5.3288701 c 0.0503,-0.0193 0.06327,-0.089 0.06327,-0.34 v -0.31572 h -0.140001 -0.14 v 0.316666 c 0,0.343838 0.04023,0.406781 0.216729,0.339054 z m 2.42145,-0.18572 c 0.02756,-0.06968 0.01724,-0.105808 -0.04572,-0.16 -0.04473,-0.0385 -0.09733,-0.07 -0.11689,-0.07 -0.05521,0 -0.0419,0.27078 0.01443,0.293508 0.09075,0.03662 0.112212,0.02742 0.148179,-0.06351 z"
   id="path1536"
   inkscape:export-filename="/home/sheeshka/Desktop/carpentermeghann/images/path1536.png"
   inkscape:export-xdpi="96"
   inkscape:export-ydpi="96" /></svg>
