<?xml version="1.0" encoding="UTF-8" standalone="no"?>
<!-- Uploaded to: SVG Repo, www.svgrepo.com, Generator: SVG Repo Mixer Tools -->

<svg
   version="1.1"
   id="designs"
   width="217.87502"
   height="191.96129"
   viewBox="0 0 8.7150006 7.6784516"
   xml:space="preserve"
   sodipodi:docname="leadership.svg"
   inkscape:version="1.1.2 (0a00cf5339, 2022-02-04)"
   xmlns:inkscape="http://www.inkscape.org/namespaces/inkscape"
   xmlns:sodipodi="http://sodipodi.sourceforge.net/DTD/sodipodi-0.dtd"
   xmlns="http://www.w3.org/2000/svg"
   xmlns:svg="http://www.w3.org/2000/svg"><defs
   id="defs962" /><sodipodi:namedview
   id="namedview960"
   pagecolor="#ffffff"
   bordercolor="#666666"
   borderopacity="1.0"
   inkscape:pageshadow="2"
   inkscape:pageopacity="0.0"
   inkscape:pagecheckerboard="0"
   showgrid="false"
   fit-margin-top="0"
   fit-margin-left="0"
   fit-margin-right="0"
   fit-margin-bottom="0"
   inkscape:zoom="0.9975"
   inkscape:cx="167.41855"
   inkscape:cy="202.50627"
   inkscape:window-width="1920"
   inkscape:window-height="1008"
   inkscape:window-x="0"
   inkscape:window-y="0"
   inkscape:window-maximized="1"
   inkscape:current-layer="designs" />
<style
   type="text/css"
   id="style955">
	.sketchy_een{fill:#111918;}
</style>

<path
   style="fill:#277b9d;stroke-width:0.04;fill-opacity:1"
   d="M 4.3,7.6244945 C 4.1254516,7.5483125 3.8923156,7.2714715 3.8351372,7.0724865 c -0.02726,-0.09487 -0.054714,-0.179382 -0.061007,-0.187809 -0.00629,-0.0084 -0.074009,0.03961 -0.1504792,0.106752 C 3.4049458,7.1834545 2.9965894,7.3941435 2.7024014,7.4667415 1.8780921,7.6701605 0.8816603,7.0787135 0.7176458,6.2886595 0.6058823,5.7502975 0.7827998,5.2097935 1.2109068,4.7816862 L 1.463198,4.529395 1.1342376,4.1891522 C 0.8802805,3.926485 0.7632968,3.7653214 0.6211527,3.4822954 0.2948664,2.8326206 0,1.7822553 0,1.2696417 0,0.6580578 0.2970908,0.1646891 0.7373692,0.0451178 0.9450306,-0.0112792 1.3919489,0.0518378 1.6588226,0.1752441 2.2442803,0.4459765 2.698938,0.8212721 3.2031808,1.4500294 3.3840112,1.6755133 3.5429052,1.8645446 3.556278,1.8700989 3.569651,1.8756489 3.574233,1.8002449 3.566461,1.7025247 3.558691,1.6048047 3.571781,1.4341549 3.595555,1.323303 3.635393,1.1375454 3.631129,1.1104796 3.541125,0.977853 3.4874156,0.8987072 3.432904,0.8038126 3.419988,0.766976 3.4070724,0.7301393 3.2983428,0.6198405 3.1783668,0.5218675 3.0583908,0.4238946 2.9496844,0.3105132 2.9367972,0.269909 2.900412,0.1552694 3.0236876,2e-7 3.1510908,2e-7 c 0.145854,0 0.5804616,0.3572125 0.7160036,0.5884972 0.078092,0.1332544 0.1189872,0.168791 0.168056,0.1460361 0.035667,-0.01654 0.1754196,-0.031647 0.3105608,-0.033571 0.242082,-0.00345 0.2477032,-0.00611 0.3805232,-0.1802475 C 4.9107972,0.2787367 5.261064,0 5.3805764,0 5.497652,0 5.6174852,0.1618942 5.58235,0.2725953 5.568994,0.3146773 5.4678596,0.4251709 5.3576072,0.518137 5.2473552,0.611103 5.128418,0.7310151 5.0933024,0.7846081 c -0.058422,0.089163 -0.05843,0.1034266 -8e-5,0.1678808 C 5.2139752,1.0859411 5.28,1.3143543 5.28,1.5987152 5.28,1.7640774 5.29689,1.88 5.320985,1.88 c 0.022542,0 0.090042,-0.082972 0.15,-0.1843825 0.5031508,-0.8510031 1.2630718,-1.4370477 2.0829308,-1.6063385 0.287316,-0.059327 0.320308,-0.058723 0.538048,0.00985 0.175055,0.055132 0.269434,0.1156227 0.384689,0.2465598 0.210457,0.2390911 0.260828,0.4463653 0.230082,0.9467695 -0.02888,0.470011 -0.0862,0.7328889 -0.31125,1.4275391 -0.205725,0.6349868 -0.374757,0.9849732 -0.652758,1.3515604 l -0.221106,0.29156 0.178581,0.2192488 c 0.273764,0.3361089 0.310363,0.4314309 0.331324,0.8629159 0.03216,0.662014 -0.103006,1.038765 -0.517283,1.441849 -0.348204,0.338795 -0.599408,0.464321 -0.996165,0.497779 -0.370265,0.03122 -0.658268,-0.04243 -0.949649,-0.242866 -0.2238116,-0.153955 -0.224844,-0.15356 -0.3496872,0.134116 -0.110254,0.254058 -0.3323592,0.404285 -0.5947432,0.402271 C 4.5117992,7.6775715 4.366,7.6533015 4.3,7.6244915 Z M 4.8528748,6.8636615 C 5.1027952,6.2613865 5.08997,5.0622615 4.819792,3.7705454 4.6641276,3.0263174 4.6409036,2.5691966 4.74,2.2000002 4.772478,2.0790002 4.799264,1.8328066 4.799525,1.6529034 4.799969,1.3469097 4.793205,1.320458 4.6946054,1.2429034 4.559712,1.136796 4.3212592,1.1337503 4.1944312,1.2365149 4.0477808,1.3553413 4.0683328,1.6299067 4.2529824,2.0187266 4.448142,2.429677 4.4645696,2.6209346 4.3630352,3.3000002 4.2393592,4.127149 4.1869248,5.0076475 4.2141588,5.8000005 c 0.034013,0.989588 0.157348,1.383159 0.4236252,1.351819 0.082837,-0.0098 0.1204992,-0.06021 0.2150908,-0.288158 z m -2.1236844,0.06971 c 0.2050688,-0.07999 0.6411804,-0.361509 0.8194308,-0.528955 l 0.1286212,-0.120825 -0.00217,-0.751795 C 3.6729424,4.7953018 3.729602,3.8088602 3.8005008,3.3480286 L 3.8361892,3.116057 3.5729092,2.7080286 C 2.7217848,1.3889659 1.7107874,0.5201244 1.0269231,0.5200318 0.7203948,0.5199918 0.6042858,0.6285129 0.5006015,1.0119642 0.4277595,1.281354 0.4279075,1.2881323 0.5162855,1.7280769 0.6380603,2.3342727 0.8454327,2.9484706 1.0632324,3.3480294 1.4309385,4.022595 2.0975874,4.496361 2.8157895,4.593515 2.9638667,4.613546 3.0311499,4.646248 3.0918903,4.7277106 3.1678253,4.8295518 3.1685723,4.8409602 3.1055953,4.9370755 3.0689608,4.9929855 2.9937,5.0500965 2.938348,5.0639895 2.8289832,5.0914395 2.2216523,4.9530065 2.0092442,4.8522138 1.8832777,4.7924398 1.872566,4.7942718 1.7167933,4.9022228 c -0.3604872,0.249818 -0.5322787,0.571972 -0.5320739,0.997778 1.56e-4,0.327521 0.089464,0.536364 0.313464,0.733039 0.3699898,0.324856 0.8610232,0.444654 1.231007,0.3003317 z M 1.51,3.2767962 C 1.423874,3.2266322 1.417291,3.0286426 1.499481,2.9604314 1.6677373,2.820791 1.88651,3.078109 1.7385418,3.2416118 1.6592432,3.3292358 1.6124121,3.3364458 1.51,3.2767962 Z m -0.4,-0.8 C 1.02959,2.4299622 1.016053,2.2399473 1.088,2.1680002 c 0.061877,-0.061877 0.2421233,-0.061877 0.304,0 0.061877,0.061877 0.061877,0.2421232 0,0.304 -0.058096,0.058096 -0.1867326,0.060284 -0.282,0.0048 z M 0.9500273,1.6891435 C 0.8110844,1.6593615 0.8126446,1.3404277 0.9518773,1.3105002 1.1304069,1.2721262 1.2315759,1.3887372 1.1840471,1.5781074 1.1601191,1.6734424 1.0719468,1.7152775 0.950025,1.6891435 Z m 5.8586315,5.14644 c 0.09101,-0.04643 0.25906,-0.172931 0.373447,-0.281113 0.170767,-0.161504 0.220735,-0.241224 0.27929,-0.445583 0.0403,-0.140637 0.07223,-0.388068 0.07343,-0.568887 0.0023,-0.354978 -0.04465,-0.481052 -0.253249,-0.6793971 L 7.1560088,4.7412066 6.9080058,4.8370356 C 6.6102668,4.9520835 6.4569128,4.9574925 6.3798288,4.8556676 6.2440508,4.6763088 6.3261988,4.5428092 6.6600028,4.4003804 6.9099428,4.293734 7.0758038,4.1374204 7.3182778,3.78 c 0.251414,-0.3705984 0.304738,-0.478942 0.486468,-0.988388 0.223547,-0.6266744 0.355257,-1.2386046 0.355257,-1.6505407 0,-0.3174003 -0.0082,-0.352901 -0.103427,-0.4481343 C 7.9627458,0.599102 7.9316688,0.5914582 7.7215218,0.610514 7.4055368,0.639166 6.8961738,0.8846634 6.5199998,1.1896078 6.0553328,1.5662896 5.8232648,1.8747475 5.4616744,2.5963046 L 5.2330088,3.0526078 5.3351856,3.6763042 c 0.1302016,0.7947616 0.20372,1.9410333 0.1553524,2.4221953 L 5.4545,6.4569975 5.5772496,6.5867565 c 0.067512,0.07137 0.2109308,0.175544 0.3187082,0.231502 0.259896,0.134939 0.66701,0.142667 0.912701,0.01733 z m 0.09754,-3.3087329 c -0.196734,-0.2173884 0.104403,-0.5505332 0.310943,-0.3439932 0.09089,0.090888 0.08188,0.324148 -0.01451,0.3757356 -0.115356,0.061736 -0.222186,0.050297 -0.29643,-0.031742 z m 0.391879,-0.944168 c -0.07957,-0.1214468 -0.02386,-0.2496681 0.124688,-0.286951 0.18515,-0.04647 0.341191,0.204311 0.209233,0.3362686 -0.08371,0.083706 -0.26423,0.057044 -0.333921,-0.049318 z m 0.229921,-0.8306824 c -0.0264,-0.0264 -0.048,-0.0858 -0.048,-0.132 0,-0.1155578 0.07482,-0.18 0.20899,-0.18 0.151696,0 0.227941,0.1728922 0.125947,0.2855942 -0.07662,0.084661 -0.215866,0.097476 -0.286937,0.026406 z"
   id="path2292" /></svg>
