<?xml version="1.0" encoding="UTF-8" standalone="no"?>
<!-- Uploaded to: SVG Repo, www.svgrepo.com, Generator: SVG Repo Mixer Tools -->

<svg
   version="1.1"
   id="designs"
   width="218.22478"
   height="167.48611"
   viewBox="0 0 8.728991 6.6994446"
   xml:space="preserve"
   sodipodi:docname="learning.svg"
   inkscape:version="1.1.2 (0a00cf5339, 2022-02-04)"
   xmlns:inkscape="http://www.inkscape.org/namespaces/inkscape"
   xmlns:sodipodi="http://sodipodi.sourceforge.net/DTD/sodipodi-0.dtd"
   xmlns="http://www.w3.org/2000/svg"
   xmlns:svg="http://www.w3.org/2000/svg"><defs
   id="defs962" /><sodipodi:namedview
   id="namedview960"
   pagecolor="#ffffff"
   bordercolor="#666666"
   borderopacity="1.0"
   inkscape:pageshadow="2"
   inkscape:pageopacity="0.0"
   inkscape:pagecheckerboard="0"
   showgrid="false"
   fit-margin-top="0"
   fit-margin-left="0"
   fit-margin-right="0"
   fit-margin-bottom="0"
   inkscape:zoom="0.9975"
   inkscape:cx="109.77444"
   inkscape:cy="84.210526"
   inkscape:window-width="1920"
   inkscape:window-height="1008"
   inkscape:window-x="0"
   inkscape:window-y="0"
   inkscape:window-maximized="1"
   inkscape:current-layer="designs" />
<style
   type="text/css"
   id="style955">
	.sketchy_een{fill:#111918;}
</style>

<path
   style="fill:#457b9d;stroke-width:0.04;fill-opacity:1"
   d="M 3.4505412,6.6484975 C 3.3803888,6.6131947 3.3376212,6.5447211 3.3072544,6.4190871 L 3.2639676,6.2400003 2.9072544,6.2069435 C 2.711062,6.1887619 2.0148044,6.1832671 1.3600148,6.1947327 l -1.19052624,0.020846 -0.0645921,-0.09858 C 0.04767172,6.0296631 0.03800588,5.7230959 0.0201522,3.42921 L 0,0.84000035 0.08765548,0.69265475 C 0.18277988,0.5327542 0.30389412,0.4846828 0.55674808,0.50646744 c 0.1337431,0.0115226 0.1508516,0.00126 0.1903712,-0.1141968 0.023882,-0.0697715 0.083803,-0.17307516 0.1331574,-0.22956372 L 0.97001168,0.0600004 1.7802764,0.060908 c 0.949662,0.001064 1.7260616,0.0543676 2.00889,0.13792072 0.110756,0.0327195 0.28074,0.1125986 0.3777428,0.17750908 L 4.343278,0.49435688 4.4774524,0.39201692 C 4.8324136,0.12127508 5.464892,0.0175974 6.8305412,0.006292 L 7.5905412,0 7.7598856,0.13616788 c 0.1137276,0.0914468 0.1772508,0.17831048 0.1934172,0.26448496 0.023858,0.1271748 0.026598,0.12852892 0.3078176,0.15210528 0.463894,0.0388912 0.4191044,-0.24198836 0.4521632,2.83555998 0.026339,2.4519923 0.023261,2.6765611 -0.037962,2.7699999 C 8.6065188,6.2633244 8.401394,6.3022815 8.3505412,6.2200003 8.3234928,6.1762356 5.9101268,6.1620831 5.6983056,6.2044475 5.5936392,6.2253807 5.5722968,6.2512296 5.5498168,6.3842888 5.533356,6.4817175 5.48555,6.5695839 5.4216576,6.6198415 5.3266052,6.6946099 5.2602648,6.6999607 4.4351468,6.6994107 3.8051284,6.6989907 3.5217616,6.684338 3.4505412,6.6484975 Z m 1.64,-0.5304836 c 0,-0.080676 0.084017,-0.30275 0.1310272,-0.346332 0.00494,-0.00458 0.6929728,-0.018075 1.5289728,-0.03 l 1.52,-0.021682 -2.32e-5,-0.86 C 8.2704824,3.5222644 8.2018344,1.0593405 8.1639308,1.0359149 8.1451728,1.0243219 8.0921798,1.0267849 8.0461684,1.041385 l -0.083657,0.026552 0.029386,1.9686661 c 0.027204,1.8224303 0.024229,1.9795348 -0.040044,2.1149791 -0.05272,0.111098 -0.099742,0.1516164 -0.1953712,0.1683472 -0.069267,0.012118 -0.6209408,0.017092 -1.2259408,0.011051 -1.05093,-0.010493 -1.1145856,-0.00681 -1.4269616,0.082579 -0.2169448,0.06208 -0.3784564,0.1370984 -0.48,0.2229484 C 4.3603684,5.8590428 4.324414,5.8569256 3.9865124,5.5989995 3.69215,5.3743075 3.5311256,5.3582587 2.141902,5.4151496 1.0037155,5.4617599 0.91740008,5.4605068 0.84650128,5.3963444 0.75888098,5.3170491 0.74712718,5.1696232 0.82230508,5.0928576 c 0.040168,-0.041016 0.045336,-0.173828 0.02307,-0.5928572 -0.015782,-0.2970001 -0.041987,-1.2015 -0.058235,-2.01 l -0.029541,-1.47 H 0.62407038 0.49054116 v 1.7536405 c 0,0.964502 0.0118104,2.0265019 0.0262452,2.36 l 0.026245,0.6063595 H 2.053883 3.5647346 l 0.082903,0.1053944 c 0.045597,0.057967 0.082903,0.1374948 0.082903,0.1767284 0,0.1956232 0.00802,0.1978771 0.7042796,0.1978771 h 0.655721 z M 4.5642,5.115272 C 4.685958,5.0576711 4.9576948,4.9746524 5.1680596,4.930786 5.5115272,4.8591644 5.6521884,4.8532995 6.5470588,4.8732883 l 0.996518,0.02226 -0.026393,-2.1541772 C 7.5026676,1.5565731 7.4801404,0.55943884 7.4671232,0.52551656 7.4260564,0.4184982 7.102926,0.40449952 6.1705412,0.46934588 5.1782988,0.53835524 4.9215848,0.5997184 4.7126116,0.81783935 l -0.112676,0.1176084 -0.019527,1.93227635 c -0.016781,1.6606274 -0.028154,1.9421171 -0.080896,2.0022763 -0.081003,0.092393 -0.1903624,0.088609 -0.2889712,-0.01 -0.07778,-0.07778 -0.08,-0.1333332 -0.08,-2.0022547 V 0.93549065 l -0.13,-0.1190056 C 3.82378,0.65467275 3.5591352,0.58191992 2.9905412,0.5388282 2.4414936,0.49721788 1.3680416,0.488121 1.2738128,0.52427996 c -0.055027,0.0211159 -0.063186,0.13708459 -0.062619,0.88999994 3.6e-4,0.4761464 0.017556,1.3157206 0.038215,1.8657205 0.020659,0.55 0.042089,1.1497391 0.047623,1.332754 0.00553,0.1830144 0.023051,0.3407819 0.038928,0.3505944 0.015877,0.00981 0.4735988,-4e-4 1.0171596,-0.022653 1.123264,-0.046024 1.3991376,-0.02122 1.7374228,0.1562136 0.121,0.063466 0.2272632,0.1171244 0.2361404,0.1192415 C 4.3355624,5.2182709 4.4424428,5.172873 4.5642,5.115272 Z M 1.9005412,3.5987823 c -0.1282876,-0.090255 -0.1244964,-0.3143347 0.00677,-0.4003459 0.079467,-0.052069 0.2028612,-0.061472 0.69,-0.052579 0.553952,0.010112 0.5991852,0.016777 0.6832268,0.100668 0.0495,0.049411 0.09,0.1184748 0.09,0.1534748 0,0.035 -0.0405,0.1040288 -0.09,0.1533976 -0.084264,0.08404 -0.1282392,0.090365 -0.69,0.099232 -0.4936008,0.00779 -0.61596,-0.00176 -0.69,-0.053847 z M 5.6367408,3.4668508 c -0.089012,-0.098357 -0.083472,-0.2295784 0.0138,-0.3268504 0.07231,-0.07231 0.132866,-0.079941 0.63,-0.079388 0.3025,3.2e-4 0.5698052,0.013837 0.594012,0.03 0.024206,0.016163 0.06534,0.069888 0.091407,0.1193876 0.049343,0.093699 0.0065,0.23401 -0.091407,0.2993876 -0.024207,0.016163 -0.2977224,0.029663 -0.6078124,0.03 -0.495876,5.4e-4 -0.571776,-0.0082 -0.6299996,-0.072537 z M 1.7785412,2.7320004 c -0.065105,-0.065105 -0.060559,-0.2395165 0.00872,-0.3343548 0.051704,-0.070784 0.1185724,-0.078816 0.7567456,-0.0909 0.6651424,-0.012594 0.7041792,-0.00911 0.7832844,0.07 0.1027808,0.1027808 0.1071708,0.2492112 0.010105,0.3370548 -0.062354,0.05643 -0.1792352,0.0662 -0.792,0.0662 -0.5057724,0 -0.7330784,-0.014228 -0.7668504,-0.048 z m 3.7784516,-0.011263 c -0.090502,-0.090502 -0.08367,-0.2727552 0.013522,-0.3607128 0.067275,-0.060883 0.1744088,-0.075406 0.674734,-0.091466 0.5669,-0.018196 0.5987552,-0.015096 0.6800268,0.066175 0.095519,0.095519 0.1105516,0.2377584 0.035266,0.3336824 C 6.9202846,2.719709 6.7851432,2.737488 6.2669932,2.759656 5.6971352,2.784036 5.6158356,2.77958 5.5569928,2.7207374 Z m -0.05182,-0.763316 c -0.075925,-0.1158759 -0.046453,-0.2775764 0.061082,-0.335127 0.041123,-0.022008 0.344746,-0.052198 0.674718,-0.067088 l 0.5999488,-0.027073 0.070484,0.1075719 c 0.055741,0.085072 0.061489,0.1273123 0.027482,0.201949 -0.060555,0.1329048 -0.229134,0.1722674 -0.8393056,0.1959754 -0.5278592,0.02051 -0.5313288,0.020065 -0.5944092,-0.076208 z m -3.734734,-0.077544 c -0.08092,-0.097503 -0.05948,-0.2672837 0.044374,-0.351379 0.085842,-0.069511 0.152084,-0.075092 0.740826,-0.062417 0.5678124,0.012224 0.6568056,0.023199 0.7307284,0.090119 0.099632,0.090193 0.1091264,0.2331341 0.021317,0.3209434 -0.091275,0.091275 -1.46174,0.093712 -1.5372452,0.00273 z"
   id="path1776" /></svg>
