<?xml version="1.0" encoding="UTF-8" standalone="no"?>
<!-- Uploaded to: SVG Repo, www.svgrepo.com, Generator: SVG Repo Mixer Tools -->

<svg
   version="1.1"
   id="designs"
   width="233.84276"
   height="169.32002"
   viewBox="0 0 9.3537103 6.7728009"
   xml:space="preserve"
   sodipodi:docname="spooder.svg"
   inkscape:version="1.1.2 (0a00cf5339, 2022-02-04)"
   xmlns:inkscape="http://www.inkscape.org/namespaces/inkscape"
   xmlns:sodipodi="http://sodipodi.sourceforge.net/DTD/sodipodi-0.dtd"
   xmlns="http://www.w3.org/2000/svg"
   xmlns:svg="http://www.w3.org/2000/svg"><defs
   id="defs962" /><sodipodi:namedview
   id="namedview960"
   pagecolor="#ffffff"
   bordercolor="#666666"
   borderopacity="1.0"
   inkscape:pageshadow="2"
   inkscape:pageopacity="0.0"
   inkscape:pagecheckerboard="0"
   showgrid="false"
   fit-margin-top="0"
   fit-margin-left="0"
   fit-margin-right="0"
   fit-margin-bottom="0"
   inkscape:zoom="0.9975"
   inkscape:cx="-239.599"
   inkscape:cy="244.61153"
   inkscape:window-width="1920"
   inkscape:window-height="1008"
   inkscape:window-x="0"
   inkscape:window-y="0"
   inkscape:window-maximized="1"
   inkscape:current-layer="designs" />
<style
   type="text/css"
   id="style955">
	.sketchy_een{fill:#111918;}
</style>

<path
   style="fill:#457b9d;stroke-width:0.04;fill-opacity:1"
   d="M 0.32398614,6.683101 C 0.16738314,6.516405 0.20113014,6.434252 0.58718114,6.042382 0.96972314,5.654074 1.9509511,5.218225 2.4470131,5.21627 c 0.0825,-3.2e-4 0.149735,-0.01409 0.149411,-0.03059 -3.24e-4,-0.0165 -0.03403,-0.137136 -0.0749,-0.268081 -0.06461,-0.206995 -0.09195,-0.244461 -0.209411,-0.286956 -0.186512,-0.06748 -0.593787,-0.06603 -0.975102,0.0035 -0.44936696,0.0819 -0.57599296,0.123596 -0.79276996,0.261072 -0.216357,0.137209 -0.384711,0.153781 -0.48103,0.04735 -0.08562,-0.09461 -0.08417,-0.216913 0.0038,-0.320104 0.08571,-0.10055 0.497859,-0.310137 0.758053,-0.385492 C 1.1132671,4.153499 1.7374291,4.086788 2.0866761,4.10212 c 0.350393,0.01538 0.350335,0.01543 0.350335,-0.290264 0,-0.179493 -0.01174,-0.204561 -0.13,-0.277525 -0.491649,-0.303345 -0.90314,-0.38804 -1.58999996,-0.327264 -0.509788,0.04511 -0.616156,0.01758 -0.663679,-0.171768 -0.03259,-0.12985 -0.0027,-0.200437 0.118367,-0.279781 0.07902,-0.05177 0.218673,-0.06587 0.69215,-0.06988 0.68745096,-0.0058 0.99500296,0.0529 1.42865596,0.272752 0.151522,0.07682 0.279732,0.134642 0.284913,0.128498 0.0052,-0.0061 0.03816,-0.06773 0.07329,-0.136844 0.06182,-0.12163 0.06027,-0.130633 -0.04827,-0.28 -0.511911,-0.704472 -1.587371,-1.194779 -2.21090896,-1.007962 -0.194536,0.05828 -0.341166,7.8e-4 -0.37863,-0.148489 -0.08858,-0.352931 0.575677,-0.511139 1.32577596,-0.315763 0.496095,0.129217 1.049697,0.478956 1.438878,0.909014 l 0.220119,0.24324 0.08413,-0.0903 c 0.04627,-0.04966 0.172119,-0.144441 0.279666,-0.210616 0.107548,-0.06617 0.195542,-0.126113 0.195542,-0.133196 0,-0.0071 -0.049,-0.107323 -0.108889,-0.222756 C 3.2257751,1.264653 3.3439081,0.59309602 3.6991071,0.26642302 3.9266471,0.05715702 4.1151131,-3.7981081e-5 4.5770101,1.8919179e-8 5.1751351,4.8018919e-5 5.6560201,0.22094202 5.8390521,0.57971402 c 0.135086,0.264792 0.107291,0.76112998 -0.06702,1.19677998 -0.03577,0.08939 -0.05828,0.167087 -0.05003,0.172649 0.03846,0.02591 0.594564,0.306569 0.607451,0.306569 0.008,0 0.124907,-0.142288 0.25971,-0.316195 0.534236,-0.689213 1.4729,-1.24186798 2.111646,-1.24326998 0.274484,-6.02e-4 0.3762,0.0677 0.3762,0.252615 0,0.16309898 -0.129369,0.26684998 -0.33274,0.26684998 -0.25098,0 -0.526396,0.09382 -0.86726,0.295438 -0.395426,0.233888 -0.695756,0.509366 -0.936399,0.85891 l -0.1964,0.285279 0.0764,0.143498 c 0.04202,0.07892 0.08991,0.152078 0.106424,0.162563 0.01651,0.01049 0.160514,-0.06903 0.32,-0.1767 0.42104,-0.284247 0.457587,-0.304031 0.815837,-0.441631 0.24275,-0.09324 0.422863,-0.131979 0.706182,-0.151895 0.372406,-0.02618 0.382482,-0.02457 0.484138,0.07708 0.11596,0.115959 0.130747,0.215336 0.04873,0.327498 -0.04412,0.06034 -0.148143,0.08531 -0.522524,0.125441 -0.408708,0.04381 -0.509449,0.07044 -0.801827,0.211959 -0.304348,0.147313 -0.842497,0.529064 -0.839213,0.59532 7.44e-4,0.01498 0.01617,0.105778 0.03428,0.201775 0.03743,0.198351 -0.0073,0.193459 0.584368,0.06386 0.430618,-0.09432 1.115144,-0.06582 1.3516,0.05626 0.202736,0.104675 0.279688,0.240287 0.224842,0.39624 -0.06114,0.173862 -0.202744,0.196696 -0.560728,0.09042 -0.254355,-0.07551 -0.365382,-0.08781 -0.617363,-0.06837 -0.297933,0.02297 -0.791581,0.137801 -0.944687,0.219741 -0.08742,0.04678 -0.19602,0.400956 -0.140097,0.45688 0.02019,0.02019 0.169391,0.05334 0.331567,0.07368 0.705523,0.08848 1.238722,0.395438 1.656304,0.953509 0.277834,0.371308 0.31535,0.506453 0.178562,0.643242 C 9.0787621,6.773951 8.9673361,6.719507 8.6945681,6.350671 8.3025141,5.820535 7.8692011,5.593131 7.0310241,5.477639 l -0.185981,-0.02563 -0.144171,0.237332 c -0.36868,0.606912 -1.001866,0.903362 -1.923867,0.900731 -0.816941,-0.0023 -1.272558,-0.174292 -1.6995,-0.641434 L 2.8718601,5.723629 2.5950071,5.704879 c -0.328689,-0.02226 -0.525593,0.03368 -1.069988,0.304007 -0.301133,0.149532 -0.427732,0.242029 -0.65176796,0.476201 -0.304442,0.318217 -0.402995,0.353751 -0.549273,0.198045 z M 5.3321651,5.995261 C 5.8940901,5.848898 6.1469831,5.654724 6.3706781,5.19788 6.7770631,4.367933 6.7187171,3.527501 6.2129821,2.926374 5.8144711,2.452695 5.6962701,2.41221 4.5361871,2.352045 c -0.505637,-0.02622 -0.526709,-0.02403 -0.722538,0.0752 -0.62194,0.315161 -0.974167,1.253883 -0.80106,2.134911 0.03817,0.194285 0.101298,0.425307 0.140275,0.513382 0.09439,0.213293 0.443985,0.628789 0.621211,0.738321 0.36085,0.223017 1.077828,0.30649 1.55809,0.181398 z m -0.08149,-4.289582 c 0.0992,-0.226105 0.184978,-0.646812 0.158683,-0.77828298 -0.03944,-0.197212 -0.217113,-0.334466 -0.533238,-0.411936 -0.618743,-0.151631 -1.016923,0.07066 -1.065179,0.59465498 -0.01097,0.119156 0.01632,0.23731 0.09738,0.421522 l 0.112628,0.255958 0.47648,0.01582 c 0.262064,0.0087 0.484678,0.02402 0.494699,0.03404 0.01002,0.01002 0.05749,0.01822 0.105479,0.01822 0.06246,0 0.105957,-0.04262 0.153068,-0.15 z"
   id="path1136" /></svg>
