<?xml version="1.0" encoding="UTF-8" standalone="no"?>
<!-- Uploaded to: SVG Repo, www.svgrepo.com, Generator: SVG Repo Mixer Tools -->

<svg
   version="1.1"
   id="designs"
   width="209.5051"
   height="217.90027"
   viewBox="0 0 8.3802038 8.7160107"
   xml:space="preserve"
   sodipodi:docname="wrench.svg"
   inkscape:version="1.1.2 (0a00cf5339, 2022-02-04)"
   xmlns:inkscape="http://www.inkscape.org/namespaces/inkscape"
   xmlns:sodipodi="http://sodipodi.sourceforge.net/DTD/sodipodi-0.dtd"
   xmlns="http://www.w3.org/2000/svg"
   xmlns:svg="http://www.w3.org/2000/svg"><defs
   id="defs962" /><sodipodi:namedview
   id="namedview960"
   pagecolor="#ffffff"
   bordercolor="#666666"
   borderopacity="1.0"
   inkscape:pageshadow="2"
   inkscape:pageopacity="0.0"
   inkscape:pagecheckerboard="0"
   showgrid="false"
   fit-margin-top="0"
   fit-margin-left="0"
   fit-margin-right="0"
   fit-margin-bottom="0"
   inkscape:zoom="0.9975"
   inkscape:cx="20.551378"
   inkscape:cy="229.57393"
   inkscape:window-width="1920"
   inkscape:window-height="1008"
   inkscape:window-x="0"
   inkscape:window-y="0"
   inkscape:window-maximized="1"
   inkscape:current-layer="designs" />
<style
   type="text/css"
   id="style955">
	.sketchy_een{fill:#111918;}
</style>

<path
   style="fill:#457b9d;stroke-width:0.04;fill-opacity:1"
   d="M 0.68622943,8.55802 C 0.31250083,8.375622 0.09648573,8.1629872 0.02852773,7.9106108 -0.03214227,7.6852996 5.7773198e-4,7.509684 0.15931533,7.2086328 0.31215233,6.9187736 1.1392824,5.8709264 1.5593289,5.4350308 1.7981856,5.1871612 3.0024762,4.0275192 3.7902209,3.2868476 l 0.18,-0.1692438 L 3.8846959,2.967102 C 3.4751322,2.2463762 3.6583714,1.3669342 4.3650994,0.66144922 c 0.4504309,-0.449639 0.8081148,-0.631701 1.290838,-0.657037 0.4094261,-0.02149 0.6907245,0.03348 1.0742837,0.209939 0.3585063,0.16493 0.3976632,0.213014 0.3653648,0.448656 -0.021979,0.160353 -0.064059,0.225543 -0.3159364,0.48944198 -0.1598192,0.167447 -0.3428776,0.373156 -0.4067968,0.457131 l -0.1162168,0.152681 0.1878156,0.187319 0.1878152,0.187319 0.4962576,-0.51 c 0.334638,-0.343905 0.5245,-0.51 0.5829772,-0.51 0.1777284,0 0.3396156,0.2333 0.4946405,0.712839 0.184972,0.572176 0.213435,0.8306302 0.12814,1.163568 C 8.238592,3.3668284 8.090148,3.6106304 7.7233403,3.9967232 7.3163726,4.4250864 7.1189886,4.534702 6.5299479,4.659464 5.9695798,4.7781528 5.8175798,4.7804404 5.5042902,4.674901 5.3704167,4.629802 5.2572402,4.598302 5.2527874,4.604901 5.0930258,4.8416554 4.1820854,5.9854902 3.8734395,6.336899 3.4512113,6.817626 2.0710108,8.2077776 1.770221,8.4552812 1.3853266,8.77199 1.1670393,8.7926788 0.68622943,8.55802 Z M 1.5100436,8.0460028 C 1.7420579,7.8715384 3.0908741,6.527992 3.5069489,6.0568988 4.0757457,5.4128892 4.6975341,4.6098804 4.9542509,4.18778 5.0959989,3.954714 5.2284229,3.9069396 5.3837029,4.0328476 5.7452789,4.3260288 6.176563,4.3505452 6.8091182,4.1138756 7.2439002,3.9512028 7.7772634,3.3095128 7.8783774,2.8274478 7.9172014,2.6423528 7.9112584,2.5648642 7.8343734,2.2537012 7.7854834,2.0558392 7.729413,1.8679512 7.709773,1.8361722 7.68188,1.7910422 7.5920222,1.8588522 7.299293,2.1459172 6.884559,2.5526322 6.7717894,2.6149462 6.5188438,2.5771752 6.3815714,2.5566752 6.2954801,2.5029552 6.0862393,2.3072192 5.5558053,1.8110242 5.5762317,1.6491042 6.256993,0.95364722 c 0.216252,-0.22092 0.2483923,-0.270966 0.1998767,-0.31123 -0.094122,-0.07811 -0.6295884,-0.174492 -0.8377608,-0.150787 -0.4066128,0.0463 -0.998156,0.491449 -1.2373852,0.93115398 -0.061912,0.113794 -0.1277932,0.323785 -0.1534376,0.489067 -0.056264,0.362632 -0.00454,0.608509 0.1864076,0.886097 0.175326,0.2548791 0.1725404,0.3547901 -0.015214,0.5456866 C 4.2493306,3.4962968 3.4297677,4.2591044 3.0512529,4.598496 1.7502777,5.7650024 0.47022103,7.3064288 0.47022103,7.706538 c 0,0.1539076 0.1675251,0.3098356 0.4610498,0.4291328 C 1.1908687,8.2411792 1.2659548,8.2295468 1.5100436,8.0460028 Z M 0.99912123,7.7746308 C 0.89920923,7.7046488 0.87492243,7.4749348 0.96022123,7.406692 1.0821766,7.309122 1.1879779,7.311019 1.2895552,7.412592 1.410943,7.53398 1.417862,7.6492536 1.3102212,7.7568944 1.2141162,7.8529984 1.1187727,7.8584332 0.99912143,7.7746264 Z"
   id="path1376" /></svg>
